font.ufo
<glyph name="i" format="1">
	<unicode hex="0069"/>
	<advance width="229"/>
	<outline>
		<contour>
			<point x="92" y="0" type="line"/>
			<point x="136" y="0" type="line"/>
			<point x="136" y="480" type="line"/>
			<point x="92" y="480" type="line"/>
		</contour>
		<contour>
			<point x="115" y="596" type="curve" smooth="yes"/>
			<point x="137" y="596"/>
			<point x="153" y="612"/>
			<point x="153" y="637" type="curve" smooth="yes"/>
			<point x="153" y="660"/>
			<point x="137" y="676"/>
			<point x="115" y="676" type="curve" smooth="yes"/>
			<point x="94" y="676"/>
			<point x="77" y="660"/>
			<point x="77" y="637" type="curve" smooth="yes"/>
			<point x="77" y="612"/>
			<point x="94" y="596"/>
		</contour>
		<contour>
			<point name="aboveUC" x="114" y="523" type="move"/>
		</contour>
		<contour>
			<point name="ogonekLC" x="136" y="0" type="move"/>
		</contour>
		<contour>
			<point name="baseLC" x="114" y="0" type="move"/>
		</contour>
		<contour>
			<point name="belowLC" x="113" y="-20" type="move"/>
		</contour>
	</outline>
</glyph>
<glyph name="Eth" format="1">
	<unicode hex="00D0"/>
	<advance width="625"/>
	<outline>
		<contour>
			<point x="37" y="332" type="line"/>
			<point x="327" y="332" type="line"/>
			<point x="327" y="365" type="line"/>
			<point x="120" y="365" type="line"/>
			<point x="37" y="363" type="line"/>
		</contour>
		<component base="D" xOffset="21"/>
		<contour>
			<point name="aboveUC" x="312" y="679" type="move"/>
		</contour>
		<contour>
			<point name="belowLC" x="312" y="-20" type="move"/>
		</contour>
	</outline>
</glyph>
<glyph name="Odieresis" format="1">
	<unicode hex="00D6"/>
	<advance width="652"/>
	<outline>
		<component base="O"/>
		<component base="dieresiscmb.cap" xOffset="326"/>
		<contour>
			<point name="ogonekUC" x="326" y="0" type="move"/>
		</contour>
	</outline>
</glyph>
<glyph name="aacute" format="1">
	<unicode hex="00E1"/>
	<advance width="491"/>
	<outline>
		<component base="a"/>
		<component base="acutecmb" xOffset="263"/>
		<contour>
			<point name="ogonekLC" x="401" y="0" type="move"/>
		</contour>
	</outline>
</glyph>
<glyph name="adieresis" format="1">
	<unicode hex="00E4"/>
	<advance width="491"/>
	<outline>
		<component base="a"/>
		<component base="dieresiscmb" xOffset="263"/>
		<contour>
			<point name="ogonekLC" x="401" y="0" type="move"/>
		</contour>
	</outline>
</glyph>
<glyph name="lslash" format="1">
	<unicode hex="0142"/>
	<advance width="239"/>
	<outline>
		<contour>
			<point x="28" y="322" type="line"/>
			<point x="102" y="370" type="line"/>
			<point x="126" y="381" type="line"/>
			<point x="213" y="439" type="line"/>
			<point x="194" y="469" type="line"/>
			<point x="126" y="424" type="line"/>
			<point x="102" y="412" type="line"/>
			<point x="10" y="352" type="line"/>
		</contour>
		<component base="l" xOffset="1"/>
		<contour>
			<point name="aboveUC" x="115" y="730" type="move"/>
		</contour>
		<contour>
			<point name="belowLC" x="137" y="-20" type="move"/>
		</contour>
	</outline>
</glyph>
<glyph name="ismall" format="1">
	<unicode hex="026A"/>
	<advance width="310"/>
	<outline>
		<contour>
			<point x="43" y="0" type="line"/>
			<point x="267" y="0" type="line"/>
			<point x="267" y="39" type="line"/>
			<point x="177" y="39" type="line"/>
			<point x="177" y="442" type="line"/>
			<point x="267" y="442" type="line"/>
			<point x="267" y="480" type="line"/>
			<point x="43" y="480" type="line"/>
			<point x="43" y="442" type="line"/>
			<point x="133" y="442" type="line"/>
			<point x="133" y="39" type="line"/>
			<point x="43" y="39" type="line"/>
		</contour>
		<contour>
			<point name="aboveLC" x="156" y="502" type="move"/>
		</contour>
		<contour>
			<point name="ogonekUC" x="131" y="0" type="move"/>
		</contour>
		<contour>
			<point name="belowLC" x="156" y="-20" type="move"/>
		</contour>
	</outline>
</glyph>
<glyph name="lmiddletilde" format="1">
	<unicode hex="026B"/>
	<advance width="237"/>
	<outline>
		<component base="l"/>
		<component base="tildeoverlaycmb" xOffset="118" yOffset="-205"/>
		<contour>
			<point name="aboveUC" x="113" y="730" type="move"/>
		</contour>
		<contour>
			<point name="aboveLC" x="150" y="709" type="move"/>
		</contour>
		<contour>
			<point name="belowLC" x="138" y="-20" type="move"/>
		</contour>
	</outline>
</glyph>
<glyph name="tesh" format="1">
	<unicode hex="02A7"/>
	<advance width="341"/>
	<outline>
		<contour>
			<point x="223" y="-12" type="curve" smooth="yes"/>
			<point x="243" y="-12"/>
			<point x="273" y="-4"/>
			<point x="301" y="6" type="curve"/>
			<point x="289" y="42" type="line"/>
			<point x="272" y="34"/>
			<point x="247" y="27"/>
			<point x="229" y="27" type="curve" smooth="yes"/>
			<point x="163" y="27"/>
			<point x="148" y="68"/>
			<point x="148" y="129" type="curve" smooth="yes"/>
			<point x="148" y="442" type="line"/>
			<point x="287" y="442" type="line"/>
			<point x="287" y="480" type="line"/>
			<point x="148" y="480" type="line"/>
			<point x="148" y="619" type="line"/>
			<point x="110" y="619" type="line"/>
			<point x="104" y="480" type="line"/>
			<point x="28" y="476" type="line"/>
			<point x="28" y="442" type="line"/>
			<point x="103" y="442" type="line"/>
			<point x="103" y="133" type="line" smooth="yes"/>
			<point x="103" y="47"/>
			<point x="130" y="-12"/>
		</contour>
		<contour>
			<point x="339" y="-229" type="curve" smooth="yes"/>
			<point x="413" y="-229"/>
			<point x="446" y="-183"/>
			<point x="446" y="-89" type="curve" smooth="yes"/>
			<point x="446" y="590" type="line" smooth="yes"/>
			<point x="446" y="651"/>
			<point x="459" y="695"/>
			<point x="521" y="695" type="curve" smooth="yes"/>
			<point x="536" y="695"/>
			<point x="551" y="689"/>
			<point x="561" y="685" type="curve"/>
			<point x="571" y="721" type="line"/>
			<point x="559" y="727"/>
			<point x="539" y="733"/>
			<point x="520" y="733" type="curve" smooth="yes"/>
			<point x="438" y="733"/>
			<point x="402" y="687"/>
			<point x="402" y="593" type="curve" smooth="yes"/>
			<point x="402" y="-86" type="line"/>
			<point x="402" y="-147"/>
			<point x="392" y="-191"/>
			<point x="338" y="-191" type="curve" smooth="yes"/>
			<point x="319" y="-191"/>
			<point x="300" y="-185"/>
			<point x="287" y="-181" type="curve"/>
			<point x="277" y="-217" type="line"/>
			<point x="292" y="-223"/>
			<point x="316" y="-229"/>
		</contour>
		<contour>
			<point name="aboveUC" x="170" y="730" type="move"/>
		</contour>
		<contour>
			<point name="belowLC" x="170" y="-20" type="move"/>
		</contour>
	</outline>
</glyph>
<glyph name="heAlef" format="1">
	<unicode hex="05D0"/>
	<advance width="628"/>
	<outline>
		<contour>
			<point x="430" y="170" type="line"/>
			<point x="507" y="272"/>
			<point x="556" y="392"/>
			<point x="556" y="467" type="curve" smooth="yes"/>
			<point x="556" y="535"/>
			<point x="526" y="560"/>
			<point x="462" y="560" type="curve" smooth="yes"/>
			<point x="442" y="560"/>
			<point x="418" y="560"/>
			<point x="386" y="554" type="curve"/>
			<point x="382" y="508" type="line"/>
			<point x="416" y="514"/>
			<point x="438" y="514"/>
			<point x="458" y="514" type="curve" smooth="yes"/>
			<point x="498" y="514"/>
			<point x="516" y="501"/>
			<point x="516" y="460" type="curve" smooth="yes"/>
			<point x="516" y="387"/>
			<point x="473" y="287"/>
			<point x="397" y="190" type="curve"/>
		</contour>
		<contour>
			<point x="98" y="0" type="curve"/>
			<point x="142" y="0" type="line"/>
			<point x="140" y="29"/>
			<point x="138" y="57"/>
			<point x="138" y="82" type="curve" smooth="yes"/>
			<point x="138" y="240"/>
			<point x="169" y="335"/>
			<point x="214" y="433" type="curve"/>
			<point x="182" y="452" type="line"/>
			<point x="130" y="352"/>
			<point x="96" y="250"/>
			<point x="96" y="84" type="curve" smooth="yes"/>
			<point x="96" y="56"/>
			<point x="96" y="29"/>
		</contour>
		<contour>
			<point x="546" y="-12" type="curve"/>
			<point x="586" y="8" type="line"/>
			<point x="425" y="183"/>
			<point x="260" y="379"/>
			<point x="144" y="560" type="curve"/>
			<point x="104" y="540" type="line"/>
			<point x="223" y="354"/>
			<point x="389" y="158"/>
		</contour>
	</outline>
</glyph>
<glyph name="heBet" format="1">
	<unicode hex="05D1"/>
	<advance width="565"/>
	<outline>
		<contour>
			<point x="461" y="20" type="line"/>
			<point x="461" y="360" type="line"/>
			<point x="461" y="498"/>
			<point x="395" y="548"/>
			<point x="293" y="548" type="curve"/>
			<point x="82" y="548" type="line"/>
			<point x="73" y="504" type="line"/>
			<point x="278" y="504" type="line"/>
			<point x="366" y="504"/>
			<point x="421" y="467"/>
			<point x="421" y="349" type="curve"/>
			<point x="421" y="20" type="line"/>
		</contour>
		<contour>
			<point x="538" y="0" type="curve"/>
			<point x="547" y="44" type="line"/>
			<point x="366" y="44"/>
			<point x="151" y="40"/>
			<point x="56" y="32" type="curve"/>
			<point x="47" y="-12" type="line"/>
			<point x="142" y="-4"/>
			<point x="372" y="0"/>
		</contour>
	</outline>
</glyph>
<glyph name="heGimel" format="1">
	<unicode hex="05D2"/>
	<advance width="379"/>
	<outline>
		<contour>
			<point x="264" y="0" type="line"/>
			<point x="304" y="0" type="line"/>
			<point x="269" y="426" type="line"/>
			<point x="263" y="513"/>
			<point x="247" y="539"/>
			<point x="188" y="547" type="curve" smooth="yes"/>
			<point x="98" y="560" type="line"/>
			<point x="89" y="516" type="line"/>
			<point x="169" y="506" type="line" smooth="yes"/>
			<point x="219" y="500"/>
			<point x="227" y="480"/>
			<point x="233" y="414" type="curve"/>
		</contour>
		<contour>
			<point x="48" y="-8" type="line"/>
			<point x="161" y="-2"/>
			<point x="257" y="84"/>
			<point x="264" y="156" type="curve"/>
			<point x="253" y="188" type="line"/>
			<point x="239" y="107"/>
			<point x="150" y="45"/>
			<point x="56" y="37" type="curve"/>
		</contour>
	</outline>
</glyph>
<glyph name="heDalet" format="1">
	<unicode hex="05D3"/>
	<advance width="545"/>
	<outline>
		<contour>
			<point x="27" y="504" type="line"/>
			<point x="487" y="504" type="line"/>
			<point x="496" y="548" type="line"/>
			<point x="36" y="548" type="line"/>
		</contour>
		<contour>
			<point x="349" y="0" type="line"/>
			<point x="389" y="0" type="line"/>
			<point x="389" y="344" type="line"/>
			<point x="389" y="422"/>
			<point x="404" y="473"/>
			<point x="427" y="506" type="curve"/>
			<point x="389" y="506" type="line"/>
			<point x="365" y="473"/>
			<point x="349" y="423"/>
			<point x="349" y="344" type="curve"/>
		</contour>
	</outline>
</glyph>
<glyph name="heHe" format="1">
	<unicode hex="05D4"/>
	<advance width="648"/>
	<outline>
		<contour>
			<point x="508" y="0" type="line"/>
			<point x="548" y="0" type="line"/>
			<point x="548" y="360" type="line" smooth="yes"/>
			<point x="548" y="498"/>
			<point x="482" y="547"/>
			<point x="381" y="547" type="curve"/>
			<point x="109" y="547" type="line"/>
			<point x="100" y="503" type="line"/>
			<point x="370" y="503" type="line"/>
			<point x="452" y="503"/>
			<point x="508" y="466"/>
			<point x="508" y="349" type="curve" smooth="yes"/>
		</contour>
		<contour>
			<point x="112" y="0" type="line"/>
			<point x="152" y="0" type="line"/>
			<point x="152" y="334" type="line"/>
			<point x="112" y="334" type="line"/>
		</contour>
	</outline>
</glyph>
<glyph name="heVav" format="1">
	<unicode hex="05D5"/>
	<advance width="314"/>
	<outline>
		<contour>
			<point x="174" y="0" type="line"/>
			<point x="214" y="0" type="line"/>
			<point x="214" y="426" type="line" smooth="yes"/>
			<point x="214" y="505"/>
			<point x="194" y="539"/>
			<point x="126" y="548" type="curve" smooth="yes"/>
			<point x="34" y="560" type="line"/>
			<point x="25" y="516" type="line"/>
			<point x="107" y="504" type="line" smooth="yes"/>
			<point x="158" y="497"/>
			<point x="174" y="478"/>
			<point x="174" y="415" type="curve" smooth="yes"/>
		</contour>
	</outline>
</glyph>
<glyph name="heZayin" format="1">
	<unicode hex="05D6"/>
	<advance width="360"/>
	<outline>
		<contour>
			<point x="301" y="507" type="curve"/>
			<point x="310" y="549" type="line"/>
			<point x="211" y="549"/>
			<point x="106" y="550"/>
			<point x="35" y="560" type="curve"/>
			<point x="26" y="518" type="line"/>
			<point x="98" y="507"/>
			<point x="201" y="507"/>
		</contour>
		<contour>
			<point x="200" y="0" type="line"/>
			<point x="242" y="0" type="line"/>
			<point x="200" y="234" type="line" smooth="yes"/>
			<point x="187" y="304"/>
			<point x="179" y="362"/>
			<point x="179" y="406" type="curve" smooth="yes"/>
			<point x="179" y="460"/>
			<point x="191" y="492"/>
			<point x="219" y="508" type="curve"/>
			<point x="177" y="508" type="line"/>
			<point x="151" y="492"/>
			<point x="139" y="458"/>
			<point x="139" y="402" type="curve" smooth="yes"/>
			<point x="139" y="360"/>
			<point x="145" y="304"/>
			<point x="158" y="234" type="curve" smooth="yes"/>
		</contour>
	</outline>
</glyph>
<glyph name="heHet" format="1">
	<unicode hex="05D7"/>
	<advance width="660"/>
	<outline>
		<contour>
			<point x="520" y="0" type="line"/>
			<point x="560" y="0" type="line"/>
			<point x="560" y="360" type="line" smooth="yes"/>
			<point x="560" y="498"/>
			<point x="494" y="548"/>
			<point x="391" y="548" type="curve"/>
			<point x="59" y="548" type="line"/>
			<point x="50" y="504" type="line"/>
			<point x="380" y="504" type="line"/>
			<point x="464" y="504"/>
			<point x="520" y="466"/>
			<point x="520" y="349" type="curve" smooth="yes"/>
		</contour>
		<contour>
			<point x="112" y="0" type="line"/>
			<point x="152" y="0" type="line"/>
			<point x="152" y="326" type="line"/>
			<point x="152" y="403"/>
			<point x="167" y="472"/>
			<point x="190" y="506" type="curve"/>
			<point x="152" y="506" type="line"/>
			<point x="129" y="472"/>
			<point x="112" y="405"/>
			<point x="112" y="326" type="curve"/>
		</contour>
	</outline>
</glyph>
<glyph name="heTet" format="1">
	<unicode hex="05D8"/>
	<advance width="604"/>
	<outline>
		<contour>
			<point x="178" y="-12" type="line"/>
			<point x="376" y="7"/>
			<point x="548" y="189"/>
			<point x="548" y="408" type="curve" smooth="yes"/>
			<point x="548" y="522"/>
			<point x="501" y="560"/>
			<point x="404" y="560" type="curve" smooth="yes"/>
			<point x="388" y="560"/>
			<point x="365" y="558"/>
			<point x="342" y="554" type="curve"/>
			<point x="335" y="508" type="line"/>
			<point x="360" y="512"/>
			<point x="380" y="514"/>
			<point x="396" y="514" type="curve" smooth="yes"/>
			<point x="472" y="514"/>
			<point x="506" y="489"/>
			<point x="506" y="400" type="curve" smooth="yes"/>
			<point x="506" y="207"/>
			<point x="361" y="55"/>
			<point x="206" y="40" type="curve"/>
			<point x="84" y="554" type="line"/>
			<point x="44" y="545" type="line"/>
		</contour>
	</outline>
</glyph>
<glyph name="heYod" format="1">
	<unicode hex="05D9"/>
	<advance width="272"/>
	<outline>
		<contour>
			<point x="134" y="229" type="line"/>
			<point x="177" y="300"/>
			<point x="214" y="389"/>
			<point x="214" y="445" type="curve" smooth="yes"/>
			<point x="214" y="516"/>
			<point x="192" y="539"/>
			<point x="129" y="548" type="curve" smooth="yes"/>
			<point x="34" y="560" type="line"/>
			<point x="25" y="516" type="line"/>
			<point x="109" y="506" type="line" smooth="yes"/>
			<point x="164" y="500"/>
			<point x="174" y="484"/>
			<point x="174" y="438" type="curve" smooth="yes"/>
			<point x="174" y="387"/>
			<point x="140" y="313"/>
			<point x="96" y="248" type="curve"/>
		</contour>
	</outline>
</glyph>
<glyph name="heKafFin" format="1">
	<unicode hex="05DA"/>
	<advance width="534"/>
	<outline>
		<contour>
			<point x="394" y="-200" type="line"/>
			<point x="434" y="-200" type="line"/>
			<point x="434" y="361" type="line"/>
			<point x="434" y="498"/>
			<point x="368" y="548"/>
			<point x="267" y="548" type="curve" smooth="yes"/>
			<point x="34" y="548" type="line"/>
			<point x="27" y="504" type="line"/>
			<point x="256" y="504" type="line" smooth="yes"/>
			<point x="338" y="504"/>
			<point x="394" y="467"/>
			<point x="394" y="350" type="curve"/>
		</contour>
	</outline>
</glyph>
<glyph name="heKaf" format="1">
	<unicode hex="05DB"/>
	<advance width="564"/>
	<outline>
		<contour>
			<point x="47" y="-12" type="line"/>
			<point x="161" y="-2"/>
			<point x="289" y="0"/>
			<point x="464" y="0" type="curve"/>
			<point x="464" y="300" type="line"/>
			<point x="464" y="471"/>
			<point x="374" y="548"/>
			<point x="227" y="548" type="curve" smooth="yes"/>
			<point x="82" y="548" type="line"/>
			<point x="73" y="504" type="line"/>
			<point x="219" y="504" type="line" smooth="yes"/>
			<point x="355" y="504"/>
			<point x="424" y="438"/>
			<point x="424" y="290" type="curve"/>
			<point x="424" y="43" type="line"/>
			<point x="277" y="41"/>
			<point x="152" y="41"/>
			<point x="56" y="31" type="curve"/>
		</contour>
	</outline>
</glyph>
<glyph name="heLamed" format="1">
	<unicode hex="05DC"/>
	<advance width="480"/>
	<outline>
		<contour>
			<point x="115" y="-12" type="line"/>
			<point x="359" y="103"/>
			<point x="424" y="262"/>
			<point x="424" y="399" type="curve" smooth="yes"/>
			<point x="424" y="503"/>
			<point x="385" y="548"/>
			<point x="266" y="548" type="curve" smooth="yes"/>
			<point x="88" y="548" type="line"/>
			<point x="88" y="722" type="line"/>
			<point x="48" y="722" type="line"/>
			<point x="48" y="504" type="line"/>
			<point x="257" y="504" type="line" smooth="yes"/>
			<point x="347" y="504"/>
			<point x="382" y="480"/>
			<point x="382" y="393" type="curve" smooth="yes"/>
			<point x="382" y="271"/>
			<point x="329" y="137"/>
			<point x="95" y="29" type="curve"/>
		</contour>
	</outline>
</glyph>
<glyph name="heMemFin" format="1">
	<unicode hex="05DD"/>
	<advance width="654"/>
	<outline>
		<contour>
			<point x="136" y="0" type="line"/>
			<point x="554" y="0" type="line"/>
			<point x="554" y="360" type="line" smooth="yes"/>
			<point x="554" y="498"/>
			<point x="488" y="547"/>
			<point x="387" y="547" type="curve"/>
			<point x="59" y="547" type="line"/>
			<point x="50" y="503" type="line"/>
			<point x="376" y="503" type="line"/>
			<point x="458" y="503"/>
			<point x="514" y="466"/>
			<point x="514" y="349" type="curve" smooth="yes"/>
			<point x="514" y="44" type="line"/>
			<point x="136" y="44" type="line"/>
		</contour>
		<contour>
			<point x="112" y="0" type="line"/>
			<point x="152" y="0" type="line"/>
			<point x="152" y="326" type="line"/>
			<point x="152" y="403"/>
			<point x="167" y="472"/>
			<point x="190" y="506" type="curve"/>
			<point x="152" y="506" type="line"/>
			<point x="129" y="472"/>
			<point x="112" y="405"/>
			<point x="112" y="326" type="curve"/>
		</contour>
	</outline>
</glyph>
<glyph name="heMem" format="1">
	<unicode hex="05DE"/>
	<advance width="698"/>
	<outline>
		<contour>
			<point x="278" y="-12" type="line"/>
			<point x="360" y="-1"/>
			<point x="474" y="0"/>
			<point x="590" y="0" type="curve"/>
			<point x="594" y="68"/>
			<point x="598" y="144"/>
			<point x="598" y="200" type="curve" smooth="yes"/>
			<point x="598" y="469"/>
			<point x="524" y="560"/>
			<point x="401" y="560" type="curve" smooth="yes"/>
			<point x="216" y="560"/>
			<point x="100" y="287"/>
			<point x="100" y="0" type="curve"/>
			<point x="140" y="0" type="line"/>
			<point x="140" y="270"/>
			<point x="246" y="514"/>
			<point x="397" y="514" type="curve" smooth="yes"/>
			<point x="494" y="514"/>
			<point x="554" y="438"/>
			<point x="554" y="200" type="curve" smooth="yes"/>
			<point x="554" y="149"/>
			<point x="552" y="97"/>
			<point x="548" y="44" type="curve"/>
			<point x="462" y="44"/>
			<point x="360" y="43"/>
			<point x="284" y="34" type="curve"/>
		</contour>
		<contour>
			<point x="170" y="359" type="curve"/>
			<point x="208" y="378" type="line"/>
			<point x="197" y="430"/>
			<point x="160" y="506"/>
			<point x="113" y="559" type="curve"/>
			<point x="76" y="537" type="line"/>
			<point x="124" y="487"/>
			<point x="166" y="397"/>
		</contour>
	</outline>
</glyph>
<glyph name="heNunFin" format="1">
	<unicode hex="05DF"/>
	<advance width="316"/>
	<outline>
		<contour>
			<point x="176" y="-200" type="line"/>
			<point x="216" y="-200" type="line"/>
			<point x="216" y="426" type="line" smooth="yes"/>
			<point x="216" y="505"/>
			<point x="195" y="539"/>
			<point x="126" y="548" type="curve" smooth="yes"/>
			<point x="34" y="560" type="line"/>
			<point x="25" y="516" type="line"/>
			<point x="107" y="504" type="line" smooth="yes"/>
			<point x="159" y="497"/>
			<point x="176" y="478"/>
			<point x="176" y="415" type="curve" smooth="yes"/>
		</contour>
	</outline>
</glyph>
<glyph name="heNun" format="1">
	<unicode hex="05E0"/>
	<advance width="400"/>
	<outline>
		<contour>
			<point x="48" y="-12" type="line"/>
			<point x="132" y="-3"/>
			<point x="216" y="0"/>
			<point x="300" y="0" type="curve"/>
			<point x="300" y="422" type="line"/>
			<point x="299" y="498"/>
			<point x="281" y="526"/>
			<point x="217" y="540" type="curve"/>
			<point x="86" y="560" type="line"/>
			<point x="77" y="516" type="line"/>
			<point x="194" y="498" type="line" smooth="yes"/>
			<point x="246" y="490"/>
			<point x="260" y="473"/>
			<point x="260" y="411" type="curve" smooth="yes"/>
			<point x="260" y="44" type="line"/>
			<point x="190" y="43"/>
			<point x="120" y="40"/>
			<point x="54" y="32" type="curve"/>
		</contour>
	</outline>
</glyph>
<glyph name="heSamekh" format="1">
	<unicode hex="05E1"/>
	<advance width="647"/>
	<outline>
		<contour>
			<point x="233" y="-12" type="curve"/>
			<point x="424" y="6"/>
			<point x="591" y="189"/>
			<point x="591" y="408" type="curve" smooth="yes"/>
			<point x="591" y="510"/>
			<point x="553" y="548"/>
			<point x="433" y="548" type="curve" smooth="yes"/>
			<point x="36" y="548" type="line"/>
			<point x="27" y="504" type="line"/>
			<point x="424" y="504" type="line" smooth="yes"/>
			<point x="515" y="504"/>
			<point x="549" y="483"/>
			<point x="549" y="400" type="curve" smooth="yes"/>
			<point x="549" y="206"/>
			<point x="412" y="57"/>
			<point x="257" y="40" type="curve"/>
			<point x="206" y="149"/>
			<point x="153" y="314"/>
			<point x="153" y="386" type="curve" smooth="yes"/>
			<point x="153" y="439"/>
			<point x="175" y="480"/>
			<point x="193" y="510" type="curve"/>
			<point x="154" y="512" type="line"/>
			<point x="136" y="483"/>
			<point x="112" y="441"/>
			<point x="112" y="386" type="curve" smooth="yes"/>
			<point x="112" y="312"/>
			<point x="174" y="118"/>
		</contour>
	</outline>
</glyph>
<glyph name="heAyin" format="1">
	<unicode hex="05E2"/>
	<advance width="613"/>
	<outline>
		<contour>
			<point x="45" y="-32" type="line"/>
			<point x="94" y="-28"/>
			<point x="164" y="-21"/>
			<point x="242" y="-2" type="curve" smooth="yes"/>
			<point x="429" y="43"/>
			<point x="557" y="214"/>
			<point x="557" y="406" type="curve" smooth="yes"/>
			<point x="557" y="524"/>
			<point x="510" y="560"/>
			<point x="411" y="560" type="curve" smooth="yes"/>
			<point x="395" y="560"/>
			<point x="373" y="558"/>
			<point x="351" y="554" type="curve"/>
			<point x="344" y="508" type="line"/>
			<point x="368" y="512"/>
			<point x="388" y="514"/>
			<point x="404" y="514" type="curve" smooth="yes"/>
			<point x="481" y="514"/>
			<point x="515" y="489"/>
			<point x="515" y="400" type="curve" smooth="yes"/>
			<point x="515" y="228"/>
			<point x="407" y="83"/>
			<point x="242" y="40" type="curve" smooth="yes"/>
			<point x="173" y="22"/>
			<point x="102" y="16"/>
			<point x="54" y="12" type="curve"/>
		</contour>
		<contour>
			<point x="219" y="16" type="curve"/>
			<point x="258" y="24" type="line"/>
			<point x="234" y="210"/>
			<point x="164" y="423"/>
			<point x="104" y="554" type="curve"/>
			<point x="62" y="545" type="line"/>
			<point x="124" y="410"/>
			<point x="196" y="200"/>
		</contour>
	</outline>
</glyph>
<glyph name="hePeFin" format="1">
	<unicode hex="05E3"/>
	<advance width="554"/>
	<outline>
		<contour>
			<point x="414" y="-200" type="line"/>
			<point x="454" y="-200" type="line"/>
			<point x="454" y="289" type="line" smooth="yes"/>
			<point x="454" y="456"/>
			<point x="411" y="518"/>
			<point x="293" y="533" type="curve" smooth="yes"/>
			<point x="91" y="560" type="line"/>
			<point x="60" y="427"/>
			<point x="54" y="402"/>
			<point x="54" y="364" type="curve" smooth="yes"/>
			<point x="54" y="284"/>
			<point x="104" y="245"/>
			<point x="196" y="226" type="curve"/>
			<point x="210" y="269" type="line"/>
			<point x="131" y="282"/>
			<point x="93" y="313"/>
			<point x="93" y="365" type="curve" smooth="yes"/>
			<point x="93" y="400"/>
			<point x="98" y="419"/>
			<point x="120" y="515" type="curve"/>
			<point x="286" y="492" type="line" smooth="yes"/>
			<point x="381" y="480"/>
			<point x="414" y="429"/>
			<point x="414" y="288" type="curve"/>
		</contour>
	</outline>
</glyph>
<glyph name="hePe" format="1">
	<unicode hex="05E4"/>
	<advance width="578"/>
	<outline>
		<contour>
			<point x="48" y="-12" type="line"/>
			<point x="163" y="-1"/>
			<point x="310" y="0"/>
			<point x="486" y="0" type="curve"/>
			<point x="486" y="291" type="line" smooth="yes"/>
			<point x="486" y="458"/>
			<point x="434" y="517"/>
			<point x="292" y="535" type="curve" smooth="yes"/>
			<point x="91" y="560" type="line"/>
			<point x="60" y="427"/>
			<point x="54" y="402"/>
			<point x="54" y="364" type="curve" smooth="yes"/>
			<point x="54" y="287"/>
			<point x="104" y="249"/>
			<point x="196" y="230" type="curve"/>
			<point x="210" y="273" type="line"/>
			<point x="131" y="286"/>
			<point x="93" y="316"/>
			<point x="93" y="366" type="curve" smooth="yes"/>
			<point x="93" y="401"/>
			<point x="98" y="419"/>
			<point x="120" y="515" type="curve"/>
			<point x="282" y="494" type="line" smooth="yes"/>
			<point x="403" y="478"/>
			<point x="446" y="431"/>
			<point x="446" y="290" type="curve" smooth="yes"/>
			<point x="446" y="44" type="line"/>
			<point x="295" y="42"/>
			<point x="152" y="43"/>
			<point x="54" y="32" type="curve"/>
		</contour>
	</outline>
</glyph>
<glyph name="heTsadi" format="1">
	<unicode hex="05E6"/>
	<advance width="520"/>
	<outline>
		<contour>
			<point x="335" y="174" type="line"/>
			<point x="410" y="275"/>
			<point x="461" y="383"/>
			<point x="461" y="467" type="curve" smooth="yes"/>
			<point x="461" y="535"/>
			<point x="431" y="560"/>
			<point x="367" y="560" type="curve" smooth="yes"/>
			<point x="347" y="560"/>
			<point x="323" y="560"/>
			<point x="291" y="554" type="curve"/>
			<point x="287" y="508" type="line"/>
			<point x="321" y="514"/>
			<point x="343" y="514"/>
			<point x="363" y="514" type="curve" smooth="yes"/>
			<point x="403" y="514"/>
			<point x="421" y="501"/>
			<point x="421" y="460" type="curve" smooth="yes"/>
			<point x="421" y="388"/>
			<point x="379" y="289"/>
			<point x="302" y="194" type="curve"/>
		</contour>
		<contour>
			<point x="48" y="-12" type="line"/>
			<point x="162" y="-2"/>
			<point x="299" y="0"/>
			<point x="466" y="0" type="curve"/>
			<point x="475" y="44" type="line"/>
			<point x="306" y="42"/>
			<point x="164" y="45"/>
			<point x="54" y="32" type="curve"/>
		</contour>
		<contour>
			<point x="442" y="17" type="curve"/>
			<point x="475" y="44" type="line"/>
			<point x="322" y="206"/>
			<point x="166" y="389"/>
			<point x="58" y="560" type="curve"/>
			<point x="18" y="540" type="line"/>
			<point x="130" y="362"/>
			<point x="296" y="167"/>
		</contour>
	</outline>
</glyph>
<glyph name="heQof" format="1">
	<unicode hex="05E7"/>
	<advance width="588"/>
	<outline>
		<contour>
			<point x="233" y="-12" type="line"/>
			<point x="469" y="105"/>
			<point x="532" y="262"/>
			<point x="532" y="399" type="curve" smooth="yes"/>
			<point x="532" y="503"/>
			<point x="493" y="548"/>
			<point x="374" y="548" type="curve"/>
			<point x="109" y="548" type="line"/>
			<point x="100" y="504" type="line"/>
			<point x="365" y="504" type="line"/>
			<point x="456" y="504"/>
			<point x="490" y="480"/>
			<point x="490" y="393" type="curve" smooth="yes"/>
			<point x="490" y="271"/>
			<point x="439" y="140"/>
			<point x="213" y="29" type="curve"/>
		</contour>
		<contour>
			<point x="112" y="-200" type="line"/>
			<point x="152" y="-200" type="line"/>
			<point x="152" y="334" type="line"/>
			<point x="112" y="334" type="line"/>
		</contour>
	</outline>
</glyph>
<glyph name="heResh" format="1">
	<unicode hex="05E8"/>
	<advance width="514"/>
	<outline>
		<contour>
			<point x="374" y="0" type="line"/>
			<point x="414" y="0" type="line"/>
			<point x="414" y="360" type="line" smooth="yes"/>
			<point x="414" y="498"/>
			<point x="348" y="547"/>
			<point x="247" y="547" type="curve"/>
			<point x="36" y="547" type="line"/>
			<point x="27" y="503" type="line"/>
			<point x="236" y="503" type="line"/>
			<point x="318" y="503"/>
			<point x="374" y="466"/>
			<point x="374" y="349" type="curve" smooth="yes"/>
		</contour>
	</outline>
</glyph>
<glyph name="heShin" format="1">
	<unicode hex="05E9"/>
	<advance width="689"/>
	<outline>
		<contour>
			<point x="199" y="-12" type="line"/>
			<point x="445" y="10"/>
			<point x="651" y="205"/>
			<point x="651" y="444" type="curve" smooth="yes"/>
			<point x="651" y="529"/>
			<point x="624" y="560"/>
			<point x="566" y="560" type="curve" smooth="yes"/>
			<point x="552" y="560"/>
			<point x="532" y="557"/>
			<point x="514" y="554" type="curve"/>
			<point x="507" y="508" type="line"/>
			<point x="526" y="511"/>
			<point x="542" y="514"/>
			<point x="555" y="514" type="curve" smooth="yes"/>
			<point x="591" y="514"/>
			<point x="609" y="498"/>
			<point x="609" y="438" type="curve" smooth="yes"/>
			<point x="609" y="222"/>
			<point x="424" y="58"/>
			<point x="227" y="39" type="curve"/>
			<point x="84" y="554" type="line"/>
			<point x="44" y="545" type="line"/>
		</contour>
		<contour>
			<point x="177" y="172" type="line"/>
			<point x="349" y="258"/>
			<point x="411" y="367"/>
			<point x="411" y="465" type="curve" smooth="yes"/>
			<point x="411" y="527"/>
			<point x="386" y="560"/>
			<point x="331" y="560" type="curve" smooth="yes"/>
			<point x="319" y="560"/>
			<point x="304" y="557"/>
			<point x="283" y="554" type="curve"/>
			<point x="276" y="508" type="line"/>
			<point x="296" y="511"/>
			<point x="309" y="514"/>
			<point x="320" y="514" type="curve" smooth="yes"/>
			<point x="353" y="514"/>
			<point x="369" y="494"/>
			<point x="369" y="459" type="curve" smooth="yes"/>
			<point x="369" y="366"/>
			<point x="315" y="280"/>
			<point x="159" y="204" type="curve"/>
		</contour>
	</outline>
</glyph>
<glyph name="heTav" format="1">
	<unicode hex="05EA"/>
	<advance width="694"/>
	<outline>
		<contour>
			<point x="51" y="-12" type="line"/>
			<point x="101" y="-4"/>
			<point x="182" y="0"/>
			<point x="210" y="0" type="curve"/>
			<point x="202" y="130"/>
			<point x="196" y="240"/>
			<point x="196" y="332" type="curve" smooth="yes"/>
			<point x="196" y="412"/>
			<point x="212" y="483"/>
			<point x="236" y="518" type="curve"/>
			<point x="196" y="518" type="line"/>
			<point x="173" y="483"/>
			<point x="156" y="414"/>
			<point x="156" y="334" type="curve" smooth="yes"/>
			<point x="156" y="256"/>
			<point x="163" y="159"/>
			<point x="169" y="44" type="curve"/>
			<point x="155" y="44"/>
			<point x="95" y="40"/>
			<point x="60" y="32" type="curve"/>
		</contour>
		<contour>
			<point x="563" y="0" type="line"/>
			<point x="603" y="0" type="line"/>
			<point x="603" y="360" type="line" smooth="yes"/>
			<point x="603" y="499"/>
			<point x="537" y="548"/>
			<point x="436" y="548" type="curve"/>
			<point x="88" y="548" type="line"/>
			<point x="79" y="504" type="line"/>
			<point x="425" y="504" type="line"/>
			<point x="506" y="504"/>
			<point x="563" y="466"/>
			<point x="563" y="349" type="curve" smooth="yes"/>
		</contour>
	</outline>
</glyph>
<glyph name="guillemotleft.lat" format="1">
	<advance width="399"/>
	<outline>
		<contour>
			<point x="180" y="72" type="line"/>
			<point x="205" y="91" type="line"/>
			<point x="82" y="252" type="line"/>
			<point x="205" y="411" type="line"/>
			<point x="180" y="432" type="line"/>
			<point x="43" y="271" type="line"/>
			<point x="43" y="233" type="line"/>
		</contour>
		<contour>
			<point x="321" y="72" type="line"/>
			<point x="345" y="91" type="line"/>
			<point x="223" y="252" type="line"/>
			<point x="345" y="411" type="line"/>
			<point x="321" y="432" type="line"/>
			<point x="183" y="271" type="line"/>
			<point x="183" y="233" type="line"/>
		</contour>
	</outline>
</glyph>
